<svg xmlns="http://www.w3.org/2000/svg" width="95" height="31.37" viewBox="0 0 95 31.37">
  <defs>
    <style>
      .cls-1 {
        fill: #fff;
      }
    </style>
  </defs>
  <g id="layer1" transform="translate(377.274 -222.482)">
    <g id="g23015" transform="translate(-377.274 222.483)">
      <path id="path22972" class="cls-1" d="M-205.629,254.249a15.729,15.729,0,0,1-15.737-15.685,15.728,15.728,0,0,1,15.737-15.684A15.726,15.726,0,0,1-189.9,238.565a15.726,15.726,0,0,1-15.734,15.684m0-25.709a10.057,10.057,0,0,0-10.062,10.025,10.051,10.051,0,0,0,10.058,10.023,10.049,10.049,0,0,0,10.057-10.023,10.054,10.054,0,0,0-10.057-10.024" transform="translate(284.895 -222.879)"/>
      <path id="path22974" class="cls-1" d="M-287.217,254.653h20.789c1.521,0,1.521,5.484,0,5.484h-20.789c-1.518,0-1.518-5.484,0-5.484" transform="translate(324.657 -241.739)"/>
      <path id="path22976" class="cls-1" d="M-288.538,227.194l20.6-2.772c1.506-.2,2.243,5.236.737,5.439l-20.6,2.769c-1.505.2-2.244-5.235-.737-5.438" transform="translate(325.256 -223.792)"/>
      <path id="path22978" class="cls-1" d="M-288.538,283.74l20.6,2.772c1.506.2,2.243-5.234.737-5.439l-20.6-2.771c-1.505-.2-2.244,5.237-.737,5.439" transform="translate(325.256 -255.773)"/>
      <path id="path22980" class="cls-1" d="M-340.693,226.667v27.3c0,1.52-5.484,1.52-5.484,0v-27.3c0-1.518,5.484-1.518,5.484,0" transform="translate(358.978 -224.452)"/>
      <path id="path22982" class="cls-1" d="M-318.257,225.245l3.7,27.079c.2,1.506-5.236,2.244-5.439.737l-3.7-27.078c-.2-1.506,5.236-2.244,5.439-.738" transform="translate(345.638 -223.793)"/>
      <path id="path22984" class="cls-1" d="M-373.97,225.249l-3.7,27.079c-.2,1.507,5.235,2.245,5.438.74l3.7-27.078c.2-1.506-5.236-2.244-5.439-.738" transform="translate(377.671 -223.798)"/>
    </g>
  </g>
</svg>
