<svg id="g23015" xmlns="http://www.w3.org/2000/svg" width="160" height="52.834" viewBox="0 0 160 52.834">
  <path id="path22972" d="M-194.862,275.713a26.491,26.491,0,0,1-26.5-26.418,26.489,26.489,0,0,1,26.5-26.416,26.485,26.485,0,0,1,26.5,26.418,26.486,26.486,0,0,1-26.5,26.416m0-43.3A16.938,16.938,0,0,0-211.809,249.3a16.927,16.927,0,0,0,16.94,16.88,16.924,16.924,0,0,0,16.938-16.88,16.933,16.933,0,0,0-16.938-16.882" transform="translate(328.362 -222.879)" fill="#0a99ab"/>
  <path id="path22974" d="M-286.438,254.653h35.013c2.561,0,2.561,9.237,0,9.237h-35.013c-2.557,0-2.557-9.237,0-9.237" transform="translate(349.495 -232.903)" fill="#0a99ab"/>
  <path id="path22976" d="M-287.973,229.1l34.695-4.669c2.536-.339,3.778,8.819,1.241,9.161l-34.693,4.664c-2.536.342-3.78-8.817-1.241-9.159" transform="translate(349.813 -223.364)" fill="#0a99ab"/>
  <path id="path22978" d="M-287.973,287.465l34.695,4.669c2.536.34,3.778-8.815,1.241-9.161l-34.693-4.667c-2.536-.341-3.78,8.82-1.241,9.161" transform="translate(349.813 -240.362)" fill="#0a99ab"/>
  <path id="path22980" d="M-336.941,227.446v45.976c0,2.559-9.237,2.559-9.237,0V227.446c0-2.557,9.237-2.557,9.237,0" transform="translate(367.736 -223.715)" fill="#0a99ab"/>
  <path id="path22982" d="M-314.532,225.81l6.225,45.607c.34,2.536-8.819,3.78-9.161,1.241l-6.225-45.605c-.342-2.536,8.819-3.78,9.161-1.242" transform="translate(360.646 -223.365)" fill="#0a99ab"/>
  <path id="path22984" d="M-371.437,225.812l-6.225,45.607c-.34,2.537,8.817,3.782,9.159,1.246l6.225-45.605c.341-2.536-8.819-3.78-9.161-1.242" transform="translate(377.671 -223.367)" fill="#0a99ab"/>
</svg>
